# xmcd CD database file
#
# Track frame offsets:
#	150
#	15402
#	33332
#	48792
#	64535
#	86315
#	105835
#	124917
#	143977
#	159817
#	178372
#	200607
#	216545
#	235660
#	254037
#	277237
#
# Disc length: 3968 seconds
#
# Revision: 0
# Processed by: cddbd v1.5.1PL0 Copyright (c) Steve Scherf et al.
# Submitted via: CDex 1.51
#
DISCID=df0f7e10
DTITLE=Matia Bazar - Singles
DYEAR=1989
DGENRE=Pop
TTITLE0=Stasera Che Sera
TTITLE1=Per Un'ora D'amore
TTITLE2=Ma Perche'
TTITLE3=Solo Tu
TTITLE4=E Dirsi Ciao
TTITLE5=Italian Sinfonia
TTITLE6=Fantasia
TTITLE7=Vacanze Romane
TTITLE8=Il Treno Blu
TTITLE9=Cercami Ancora
TTITLE10=Aristocratica
TTITLE11=Souvenir
TTITLE12=Ti Sento
TTITLE13=Amami
TTITLE14=Noi
TTITLE15=La Prima Stella Della Sera
EXTD=YEAR: 1989
EXTT0=
EXTT1=
EXTT2=
EXTT3=
EXTT4=
EXTT5=
EXTT6=
EXTT7=
EXTT8=
EXTT9=
EXTT10=
EXTT11=
EXTT12=
EXTT13=
EXTT14=
EXTT15=
PLAYORDER=
